# xmcd
#
# Track frame offsets:
#	150
#	14734
#	26362
#	39025
#	62425
#	73231
#	87012
#	99169
#	113708
#	133196
#	147476
#	166116
#	181709
#	192002
#	202801
#	213139
#	226742
#	243004
#	255745
#	265828
#	278454
#	289682
#	301115
#	316594
#	330724
#	342529
#
# Disc length: 4754 seconds
#
# Revision: 1
# Processed by: cddbd v1.5.2PL0 Copyright (c) Steve Scherf et al.
# Submitted via: EZCDAudioConverter 2.1.7.1
#
DISCID=5312901a
DTITLE=V/A - Let's Go Down and Blow Our Minds 2/3
DYEAR=1967
DGENRE=
TTITLE0=Elmer Gantry's Velvet Opera - Flames
TTITLE1=One In A Million - Double Sight
TTITLE2=Paul and Barry Ryan - Keep It Out Of Sight
TTITLE3=Pretty Things - Defecting Grey [Extended Version]
TTITLE4=John's Children - Desdemona
TTITLE5=The Doves - Smokeytime Springtime
TTITLE6=John Williams - Flowers In Your Hair
TTITLE7=Sweet Feeling - All So Long Ago
TTITLE8=Rupert's People - Reflection Of Charles Brown
TTITLE9=Riot Squad featuring David Bowie - Toy Soldier
TTITLE10=The Rats - The Rise And Fall Of Bernie Gripplestone
TTITLE11=Circus - Something To Write About
TTITLE12=Dave Davies - Funny Face
TTITLE13=The Brood - Village Green
TTITLE14=Tony Rivers and The Castaways - Mr. Sun
TTITLE15=Peep Show - Your Servant, Stephen
TTITLE16=The Uglys - And The Squire Blew His Horn
TTITLE17=The Move - Vote For Me
TTITLE18=Human Instinct - A Day In My Mind's Mind
TTITLE19=Murray Head - She Was Perfection
TTITLE20=Peter and The Wolves - Little Girl Lost And Found
TTITLE21=The Bunch - Spare A Shilling
TTITLE22=Big Jim Sullivan - Flower Power
TTITLE23=Procol Harum - Kaleidoscope [Extended Stereo Mix]
TTITLE24=The Searchers - Crazy Dreams
TTITLE25=The Artwoods - In The Deep End
EXTD=
EXTT0=
EXTT1=
EXTT2=
EXTT3=
EXTT4=
EXTT5=
EXTT6=
EXTT7=
EXTT8=
EXTT9=
EXTT10=
EXTT11=
EXTT12=
EXTT13=
EXTT14=
EXTT15=
EXTT16=
EXTT17=
EXTT18=
EXTT19=
EXTT20=
EXTT21=
EXTT22=
EXTT23=
EXTT24=
EXTT25=
PLAYORDER=
